<?xml version="1.0" standalone="no"?>
<!DOCTYPE svg PUBLIC "-//W3C//DTD SVG 20010904//EN"
 "http://www.w3.org/TR/2001/REC-SVG-20010904/DTD/svg10.dtd">
<svg version="1.0" xmlns="http://www.w3.org/2000/svg"
 width="299.000000pt" height="299.000000pt" viewBox="0 0 299.000000 299.000000"
 preserveAspectRatio="xMidYMid meet">
<metadata>
Created by potrace 1.11, written by Peter Selinger 2001-2013
</metadata>
<g transform="translate(0.000000,299.000000) scale(0.100000,-0.100000)"
fill="#000000" stroke="none">
<path d="M550 2226 c0 -2 -11 -81 -25 -176 -14 -95 -25 -176 -25 -180 0 -5 26
2 58 15 107 44 149 46 659 43 l482 -3 23 -23 c35 -35 33 -112 -5 -149 l-27
-28 -498 -5 c-547 -6 -535 -5 -633 -72 -54 -36 -86 -80 -110 -151 -16 -44 -18
-87 -19 -279 0 -131 5 -249 11 -280 30 -140 112 -227 252 -266 54 -15 116 -17
477 -17 372 0 420 2 466 18 51 17 100 60 125 107 12 25 13 24 24 -25 7 -27 17
-62 23 -77 l12 -28 386 0 c364 0 386 1 379 18 -58 138 -64 208 -65 803 0 385
-1 420 -19 472 -46 133 -157 238 -286 272 -51 13 -172 15 -862 15 -442 0 -803
-2 -803 -4z m1200 -978 c-1 -280 -12 -293 -275 -293 -239 0 -265 20 -273 210
-5 120 8 178 49 216 38 35 42 36 292 38 l207 1 0 -172z"/>
</g>
</svg>
